# xmcd
#
# Track frame offsets:
#	150
#	12534
#	23921
#	36772
#	47520
#	59722
#	71346
#	84307
#	94262
#	110685
#	120822
#	131732
#	144433
#	157938
#	169843
#	179964
#	190987
#	201888
#	214408
#	226866
#	237345
#	247171
#	259844
#	270236
#
# Disc length: 3764 seconds
#
# Revision: 0
# Processed by: cddbd v1.5.2PL0 Copyright (c) Steve Scherf et al.
# Submitted via: EasyCDDAExtractor 16.0.6.1
#
DISCID=5c0eb218
DTITLE=Various Artist - Northern Monsters
DYEAR=2007
DGENRE=Blues
TTITLE0=The Checkerboard Squares - Double Cookin'
TTITLE1=Morris Chestnut - Too Darn Soulful
TTITLE2=Alice Clark - You Hit Me (Right Where It Hurt)
TTITLE3=Wooden Nickels - Nobody but You
TTITLE4=Ty Karim - Lighten Up Baby
TTITLE5=Frank Dell - He Broke Your Game Wide Open
TTITLE6=Freddie Chavez - They'll Never Know Why
TTITLE7=Lou Courtney - If the Shoe Fits
TTITLE8=Hank Jacobs - Elijah Rockin' With Soul
TTITLE9=Patty and The Emblems - I'm Gonna Love You a Long, Long Time
TTITLE10=The Charmaines - I Don't Wanna Lose Him
TTITLE11=Tobi Lark - Happiness Is Here
TTITLE12=Lynn Varnado - Wash and Wear Love
TTITLE13=The Four Fuller Brothers - Time's a Wasting
TTITLE14=Johnny Bragg - They're Talking About Me
TTITLE15=Herbert Hunter - I Was Born to Love You
TTITLE16=The Servicemen - Sweet Magic
TTITLE17=Buster and Eddie - Can't Be Still
TTITLE18=The Milestones and Littler Leroy - The Joker
TTITLE19=The Gems - I'll Be There
TTITLE20=Lenis Guess - Just Ask Me
TTITLE21=The Flirtations - Stronger Than Her Love
TTITLE22=The Belles - Don't Pretend
TTITLE23=Joan Moody - We Must Be Doing Something Right
EXTD=
EXTT0=
EXTT1=
EXTT2=
EXTT3=
EXTT4=
EXTT5=
EXTT6=
EXTT7=
EXTT8=
EXTT9=
EXTT10=
EXTT11=
EXTT12=
EXTT13=
EXTT14=
EXTT15=
EXTT16=
EXTT17=
EXTT18=
EXTT19=
EXTT20=
EXTT21=
EXTT22=
EXTT23=
PLAYORDER=
